/* XPM */
static char *_4735f2827bb4f05e2fb253152dd83edAGZ8vvqc5QsKrWw7[] = {
/* columns rows colors chars-per-pixel */
"100 100 26 1 ",
"  c None",
". c #2E2F2E",
"X c #2F2F2F",
"o c #2F302F",
"O c gray19",
"+ c #303130",
"@ c #313131",
"# c #323232",
"$ c gray20",
"% c #333433",
"& c #343434",
"* c #353435",
"= c #353535",
"- c #353635",
"; c gray21",
": c #373737",
"> c gray22",
", c #383938",
"< c #393939",
"1 c #3A3A3A",
"2 c gray23",
"3 c #3E3E3E",
"4 c #3F3F3F",
"5 c gray25",
"6 c #414141",
"7 c gray26",
/* pixels */
"                                                                                                    ",
"                                                                                                    ",
"                                                                                                    ",
"                                                                                                    ",
"                                                                                                    ",
"                                                                                                    ",
"                                                                                                    ",
"                                                                                                    ",
"                                                                                                    ",
"                                                                                                    ",
"                                                                                                    ",
"                                                                                                    ",
"                                                                                                    ",
"                                                                                                    ",
"                                                                                                    ",
"                                                                                                    ",
"                                                                                                    ",
"                                                                                                    ",
"                                                                                                    ",
"                                                                                                    ",
"                                                                                                    ",
"                                                                                                    ",
"                                                                                                    ",
"                                                                                                    ",
"                                                                                                    ",
"                                                                                                    ",
"                                                                                                    ",
"                       X$XX$XX$$$X$X$XX$XX$X$X$XX$XXX$$X$X$X$XX$XX$X$X$XX$X$X                       ",
"                       >$$$&&&&&$$&$$&&&$&&$$$&$$$$$$&&$$$&$$&&&$&&$$$$$$$$$>                       ",
"                       $$XXXX$XX$X$XXXX$XX$X$X$XX$X$XX$X$X$XXXX$XX$X$X$XX$$X$                       ",
"                       &X$X$XXXXXX$X$XXXX$XXXX$X$XXXX$XXXX$X$XXXX$XXXXX$XXXX&                       ",
"                       &XXXXX$X$$XXXXXX$XX$X$XXXXXX$XX$X$XXXXXX$XX$X$XXX$X$X&                       ",
"                       &XXX$XX$XXXX$X$XXXX$X$XXX$X$XXX$X$XXX$X$XXX$X$XXXXXXX&                       ",
"                      $>&&&&$XXX$XXXXX$XX$XXXXX$XXXXX$XXXXX$XXXXX$XXXX$&&&&&&&                      ",
"          X&$&$&&&$$&&&>>>>>&$$XX$X$XXXXXXXX$X$XXX$XXXXX$X$XXX$XXXXX$XX&>>>>>&&$&$$$&$&$&X          ",
"          X$X$XXX$$XX$&>>>>&&XXXXXXX$X$XX$X$XXXXX$XXX$X$XXXXX$XXX$X$XXX&>>>>>&XX$$$X$XX$$$          ",
"          $$X$X$XXXXXX$>>>>>&$XXXXXXX$XXXX$XXXXX$XXX$XXXXXXX$X$XXX$XXX$&>>>>2&XXXXXXX$XX$X          ",
"          o$XXXXX$X$$X$>>>>>&Xo$$X$XXX$XX$XXX$X$XXX$XXX$X$X$XXXXX$XXX$X&>>>>>&X$$X$XXX$X$X          ",
"          X&X$XX$XXXoX&>>>>>&XX$XXXXXXXXXXXXXX$XXXXXXXXXXXXXXXXXXXXXXoX&>>>>>&$XXXX$XXXX$X          ",
"          X$XX$XXXX$X$%>&>&&&$$&$$$$$$$$$$$$$$&&$$$$$$$$$$$$$$$$$$$$$$&&&>&&>$XX$XXX$X$X$$          ",
"    $&$&$&$$XXX$XX$XXXXXXXXX$>>>&>>>>>>>>2>>>>>>>>2>>2>>>>>>>>2>>>2>>>>&XXXXX$X$X$XXX$X$X$$$$$&X    ",
"    X$X$XXXX$XXXX$XXX$$X$XXX$>>>>>>>>>>>>>>>>>>>>>>>>>>>>>>>>>>>>>>>>>>&X$XXXXXXXX$XXXXXXXX$XX&$    ",
"    X$XXX$XXX$X$XXXXXXXXXXXX$>>>>>>>>>>>>>>>>>>>>>>>>>>>>>>>>>>>>>>>>>2&XX$XXXXXXXXXX$XX$XXX$X$X    ",
"    X$$XXX$XXXXXX$X$$X$X$XXX$>>>>>>>>>>>>>>>>>>>>>>>>>>>>>>>>>>>>>>>>>>&XXXXX$$X$X$XXX$XXXX$XX$X    ",
"    X$XXX$X$XXXXXXXXX$XXXXXX&>>>>>>>&>>>>>>>>&>>>>>&>>&>>>&>>>>>>>&>>>>&XXXXXXXXXXX$XXX$XX$XXX$X    ",
"    X$$XXXXX$X$X$X$XXX$X$X$X&2>>2>2>2>2>>22>>22>22>22>2>>>2>2>2>2>2>>>2&X$X$$X$X$XXX$XXXX$XXX$$X    ",
"    X$XXX$XXXXX$XXX$XXXXXX$X&727727772777272727277772777777727772727777&XXXXXXX$X$X$X$X$XXXXXX$X    ",
"    X$$XXX$X$XXX$XXX$X$X$XX$&777777277727777777727277727272777727777277&XXX$$XXXXXXXXXXXX$X$X$$X    ",
"    X$X$XXX$X$XXXXXXX$XXXXXX&777277777777777777277772777727777277777277&$$XXXXXXXXXXXXXXXXXXXX$X    ",
"    X$XX$XXXXX$X$X$XXX$X$X$X&772772727222272727772727772772727772727777&XX$X$X$X$X$X$X$X$X$X$X$X    ",
"    X$XXX$X$XXXXXXX$XXXXX$XX>772777277777777277777727272727772272777277&XXXXXXX$XXX$XXX$XXX$XX$X    ",
"    X$$XXXXX$X$X$XXX$X$XXXXX&727727272727227722727277277277277727722727&XX$X$XXX$XXX$XXX$XXX$X$X    ",
"    X$X$XXXXX$XXXXXXX$X$X$XX$&>>&>>>>>>>>>>>>>>>>>>>>>>>>>>>&>>>>>>>>>>$XXXXX$XXX$XXX$X$X$XXX$$X    ",
"    X$XX$X$XXX$X$X$XXXXXXXXX&>>>>>>>>>>>>>>>>>>>>>>>>>>>>>>>>>>>>>>>>>>&X$$XXX$XXX$XXXXXXX$XXX$X    ",
"    X$X$XXX$XXXXXXX$X$XXXXXX&>>>>>>>>>>>>>>>>>>>>>>>>>>>>>>>>>>>>>>>>>>&XXXXXXXXXXXXX$XXXXXXX$$X    ",
"    $$XX$XXX$X$X$XXXXX$X$X$X&>>>>>>>>>>>>>>>>>>>>>>>>>>>>>>>>>>>>>>>>>>$XX$X$X$X$X$XXX$X$X$XXX$$    ",
"    $$$XX$XXXXX$$XXXXXXXXXXX&>>>>>>>>>>>>>>>>>>>>>>>>>>>>>>>>>>>>>>>>>>&XXX$X$X$XXX$X$XXXX$$X$$X    ",
"    XXX$XX$X$XXXXXX$X$$$$X$$$>>&>>&&>>>&>&&>>>&&>&>&>&>&>>&&>>>&&&>>&>>&XX$$$XXX$XXXXX$X$XXXXXX$    ",
"          $$X$X$$X$XXX&>&>>>&$XX$$X$X$$$XXX$$$X$$$XX$$XX$$X$X$$$X$XX$XX&>>>>&&XXX$X$XXXX$X          ",
"          X$XXXXXXXXXX&>>>>>&X$XXXXXXXXX$XXXXXXXXX$XXX$XXXXXXXXXXX$X$XX&>>>>>&XXXXXX$X$X$$          ",
"          X$XXX$$XXXX$&>>>>>&$XXX$X$XXX$XXXXX$X$XXX$XXXXX$X$XXX$X$X$oo$&>>>>>&$$XXXXX$XX$X          ",
"          X$$XXXXXX$X$&>>>>>&X$XXXXX$XXX$X$XXXXX$XXX$X$XXXXX$XXXXXXX$XX&>>>>>&XXX$X$XX$X$X          ",
"          $$XXX$$XXX$X&>>>>>&oX$X$XXX$X$XXX$X$XXX$X$XXX$X$XXX$X$X$XXXXX&>>>>>&XX$XXXX$XX$X          ",
"          X$XXXXXXXX$X&>>>>>&XXXXX$XXXXX$XXXXX$XXXXX$XXXXX$XXXXXXX$X$X$&>>>>>&X$XXXXXXXX$$          ",
"                       &$o$XXXX$XX$X$XXX$X$X$XXXXX$XXXXXXX$X$XXX$XXX$X$X$XoX$                       ",
"                       &X$XX$XXXX$XXXXX$XXXXXXX$X$XXX$X$X$XXXXX$XXX$XXXXX$X$&                       ",
"                       &XXXXX$X$XXXX$X$XXX$X$X$XXXXX$XXXXXXX$X$X$X$XXX$XXXXX&                       ",
"                       &X$X$XXXXX$X$XXXXX$XXXXXXX$X$XXX$X$X$XXXXXXXXX$XXX$X$&                       ",
"                       &XXXXXXXXXXXXXXXX$XXXXXXXXXXXXX$XXXXXXXXXXXXX$XXXXXXX&                       ",
"                       &X$$$$$X$$$$X$$$$X$$$$$$$$$$$$XX$$$$X$$$$$$$$X$$$$$$X&                       ",
"                                                                                                    ",
"                                                                                                    ",
"                                                                                                    ",
"                                                                                                    ",
"                                                                                                    ",
"                                                                                                    ",
"                                                                                                    ",
"                                                                                                    ",
"                                                                                                    ",
"                                                                                                    ",
"                                                                                                    ",
"                                                                                                    ",
"                                                                                                    ",
"                                                                                                    ",
"                                                                                                    ",
"                                                                                                    ",
"                                                                                                    ",
"                                                                                                    ",
"                                                                                                    ",
"                                                                                                    ",
"                                                                                                    ",
"                                                                                                    ",
"                                                                                                    ",
"                                                                                                    ",
"                                                                                                    ",
"                                                                                                    ",
"                                                                                                    ",
"                                                                                                    ",
"                                                                                                    ",
"                                                                                                    "
};
