/* XPM */
static char *_5faea66ee764e01e86fdad846e2964biA40VFzwvVl3n7gK[] = {
/* columns rows colors chars-per-pixel */
"100 100 30 1 ",
"  c #A8B9BF",
". c #A9B9BF",
"X c #A9BABF",
"o c #A9B9C0",
"O c #A9BAC0",
"+ c #ABBAC0",
"@ c #ACBBC1",
"# c #ACBCC2",
"$ c #ADBCC2",
"% c #AFBEC4",
"& c #B0BEC4",
"* c #B0BFC4",
"= c #B1BFC5",
"- c #B1C0C5",
"; c #B2C0C5",
": c #B3C1C7",
"> c #B4C2C7",
", c #B5C2C8",
"< c #B5C3C8",
"1 c #B6C3C8",
"2 c #B6C4C9",
"3 c #B7C4C9",
"4 c #B7C5C9",
"5 c #B7C5CA",
"6 c #B8C5CA",
"7 c #B9C5CB",
"8 c #B9C6CB",
"9 c #BAC6CB",
"0 c #BAC7CB",
"q c #BAC7CC",
/* pixels */
"...+$%;>266q666633q3q333===@o      .....  ........   ++%;:26q666666696q66*>*##+ooo   ...............",
"...+$%;>26q66666q399q333==@@+   .. +.... o.......   o+#%;:626q666666996333**#+oo o  ................",
"...+$%;>266q6666933qq33**&@@+  o.  o +..oooo......  o+#%;<2qq6q6666666963<<*%++o    ....  oX..... ..",
"...+$%;>26q66666339qq333=&&@+  o++++.+..++++++++++..++%%;:226q66666669q633**+++o +++++++@X@@++++++++",
"...+$%;>266066663q33q3q3=*+++o++@@*@$$$$%@@%*@@@+++o+++%;>26q666666666663=**%+oo++@%+$$$@@&@$X&$@@&@",
"...+$%;>26q6q6663qqq933*=*=++++%%***%-;$********=++++++%;>266q6666669qq633*=%+++++%*%%%%**&&&-&&&=**",
"...+$%;>26606666333qq333<*@@o+@@@**=*<--**3=****&&@++o+%;>6606q6666669q63==*@+++##*=<*;;*=<*-&&*&===",
"...+$%;>26060666q337q733**@@@ @*=*<<<<<;3=3=333*&&@++++%;>66606666366966333*@++++%**:<<<<><<>>>>=33=",
"...+$%;>266q66666660q63*;$##++$$=3<6666333336636;;$+o+##;;26q666666660q62;;## o#%*<<6666633366333<<3",
"...+$%;>26q6066666966633;##.o#--63<qq66666660666:;%##++%;2266q66666669662<;;.#o++*<<6666666666663q3q",
"...+$%;>266q66666666q66*;;#.+##;<6qq906q6q60q0662;-# .##;<2606q66666609662;###+#%*<<q009q6666q6qqqq3",
"...+$%;>26q6066666606663;##o++-;<66qq9q66060qqq62;$#.#+%$<226066666696666;;-..++%*<q60q96q6qq6q63q3q",
"...+$*;>266066666600022>;#$.###;<3q6qq6qq666qq662:%#+o#%;;26q6063066060662;;#++#%*33qq6qq66q6q6qq3q3",
"...+$$;>260606666602602>;;##..$;<<66q6q666099963<;##o++#;2266q66303660662;%%+oo#%**373qqq66666663q3q",
"...+$-;>266066666606062>-;..o#%;<366q666666666662;;#++$$;>260606336660662>;*#+o#*=<<3<q366666666333q",
"...+$;;>260606666660662>-$$#++%-><666966666q0q66:;#++++%;>266066036666026<**+#o+@*<3qqqq66666666qq33",
"...+$%;<266q666666q66663;;## ##;>36060663939q333<;;$X@X@=>66q6q6666606662>;&#++#**<>66066666666633q3",
"...+$%*<66666q6660q6q633;$#o #$->36606663339qqq3;;$+@X@&=><66qq666666qq662;&#+o+**<36600666666663q33",
"...+@%;<6600q6q606066q3>;;#..##;<<6q0666q33q3q33;;;#X@$$=>3qq66q6066q00q6<**+++@@*>36q666666666633qq",
"...+@*><660qq06q600qq633;$##X$$;<3660666q3393qq3<;%+@XX&=3660qq6q6qq0q066<**+++@**>6660066666666q333",
"  o+@%*<6600q666q7qqq963;;#..#$;>33q0666333q3q33:<%.X$X$*<630q066066qq026<=*@@@ @*<<6q6666666666q333",
"  o+%*=<26606q663q3qqq3>;;#.X$$;><6396663q39qq33;;%.#.$$=3336q6q666q66006<**@@+@**=7666q6666666633qq",
"  ++@%=<266266223337333*;$$.##$;<36q6q333939q333<;-#.X$-*<<3636662626622<>**.@.@==<36096666666663q33",
"  +++%*<>>2222;2<3<<<33*$#$..##-<36669qq3339qq332;%+#.X$**<<>3>3;<<22222<>*@@.@@*==366006666666633q3",
"@ .@.$#;;;;;;;;;=**<;;-%##+o.$$-<<66qq666663q6q32;$$.#.#@*====<=;--;;;;;;;$#.#.#=*<37qqq66666666qq33",
".@@ #.#$#--$#;;#**==-#%###o##$;-<<6q6666666qq6332;$$X..#@@@*****;$#;#-#;#$$$...#=*=373q366666666333q",
" @ @##+###### ##@@+@##++#.o .$#;<3666q666663qq33<;-#$...@++@@@@%##$$#$#$X$#...$$=*=<6q3q66666666333q",
"@ @ o+oo +++#  +@oo+o+++... .#;;=6666666666q3q332;$$##..++++o+oo$. ...XXX......$%*33669666666666qq33",
" @o+o+++ #.#..++ @+@.@++.....$;;>66q6q663q33qqq<<>*@#...oo+#@+++.$.$$.#X#.....$$$;>66q696666666633q3",
"@ +oo++# ####$+#+@@&@@+%#...X$#;>666q6663q3q3q<7<**%$...#o##@+#+.##.$X$$#.#X...$;;>26696666666663q33",
" ++++#####$$$$$%@&*@@$$@#.###$$;>660696633q3q37<<<%@#...##%+@%#%-#$$$$#$$$$....#$;>26q606666666633qq",
"+++++##%;-;;;;;;==*=;;;*$X...$;;>2660666q333qq7<<**@.#.#$#;;*;**;;;;;;;;;$$$#..$;;>6660666666666q333",
" oo++=**>>><>>>>>><<><<;$##.++%;>2666q66q333q9q33==*.@.@&&>>>>>>>><>><3>***@#o+##;222q6q666666666666",
" oo+@**<>3663366<66662<;;## ++%%>266q66633q9q333*=*@@X&@==>36336333333333<**++o#%-:226q6666666666666",
"  o+@*=3366q6666666q6622;-##+#%%>26660663q39qq33<**@@.@&=>366966666666q63<**#oo+#;:26q60666666666666",
"..++@==<3600996q666q6q22;$#Oo+%;>266066639333q333**@..@@=139q9q6q6q6qq9633**#+o+%%:26606666666666666",
"...@@*=366qq6q96q6qqqq62:%#+++#%>26q606633q93qq3==&XXX@&*>669q006qqq9qq99====+++$;>26q60666666666666",
"....@*=33600q66q6qq66q62;-#o+#%->6660666q339qq333=&&XX@@*33900q6q666909q73**@++@%;>26606666666666666",
"...@@**>666q6q666006q22>;##+.+$;>2606066q333q3333==.X.@&*3366q06666666693==*@o@@$;>26q60666666666666",
"....**=>6660q666666qq222;-#o#$$;>266066633q3qq331*& &.@&*<660q6666066qq633==@@+@$;>26606666666666666",
"....&&&13qq6666666600666;;.XX$$;>26666666669q333:;$#o++%*<33q3q3666696q62:;%+#o#-$2266q6666666666666",
"...@.&==<66q66666696663*;$$..$#;>666q9666666q6q3:;;#++#+*=733qq3666690632:;##OO+$-<2666q666663666666",
"....&==3>qq666666660q333;;##X.$;>6609666666q6q63<;##o++%=<376q666666669622;%+++#$;;26066666666666666",
"...@&===366666666606q69*;$..$$-;>6q60q6q606999q62;###o%@=3<3q6q6666669066:-%#+++%;<60qqq060000660606",
".. .X&&>36qqq333333qq333;-# ++%;>66qq0060099q0662;;#.@.*;>266q66063660666>>*#+o#$;<<q6qq606q6qq66q60",
"...&&&==336q93qqq3qqq33*;## +##;>6q6q06666qqq063<;%#@+@@&>26q696366606062>**++++%;<66qqq6q6q6qq6q606",
"..XX&&>133969333333q7733;-#o+#%%>66606q6636696q32;%#@XX&->666966366669q6<<**#o++$;;266q666<666636666",
"..XX@===36q993q33q37q333;##+++%%>>36666666666666;;##X@$$;>66069669166066<<**#+o+%%:26666666333633336",
"....@&=33<q66666q39qq33====@+++%;;<<2>2>:2<::22;;%$#.#$#;;266q666666996663*&++++$%;;;<22<<<<<<<<33>3",
"...X&&;;666q06663393q333==@+o++%--;;;;;;;;;-;;;;%%#+.$.-;2260606666666q633&&%+++##;;:;;;<****:=*****",
"....X&;1<60666663q93qq3***@@+o++#$;#;#;#-#$;;%%#$##.XX#;;226606666669966q***@+o@+##$%%%$%**%%*##=***",
"...&&&;=26600666339q3333=*@@+o++#####$$$#######+#+... ##;;2206066666696636**+++o+++##$#$++@+@%##  *+",
"....&&112660666633qqq3q3==&@X+  .#..#...+ .#++++......$;;>666q6666666qq63=3*@@+o .++.@X. o+++++o .@X",
"....&&==26q60666q3q3q33*==@@++oo...#  #. #..++++#....#$#;>26q60663669666q3=*=@oo .++@.+@++ #++o+.@XX",
"....&&=126606666q3337333==&@+ooo.$#####$$$$$+@+@.....$#;;>266066963696q633=*@++ooo+++$$$#+#+@@@@@@@@",
".....&==2606066633qqq79*==@@+o++$$$$-$$$$$$$%$%%$##...#$;>2606063666q6663*==@@++ ###*$$$$#-$@***&&@&",
".  +@**>266q666666696633;+++++@+;-;;;;;-;-;;;;;*;$#.+.#-;>26q6q2666696q6<<**@@+.##---;;;==*==*==*=*=",
".  +@*=<26q606666660q63*;%#+++@=-;;2>>2;;<;2<>>>;$$#+.#$;>266qq6666690633<=%@X@@$$;;;;;2<<3==3=<=3=3",
".. +***<266q666666606663:;%o+@*=;2266622266626<<;;##++#$;;26606666666696<<>*@+@@$-;222223<33333<3333",
"..o@@**>26q6066666666633*%++o@*=;266666266666q662;##++#$;;26q606666669067<*@@+X@;-;262qq3q3<q33q3q33",
"...+$**<266066666600666:*%++@X**>260q06q6q6qqqqq>;;#o#.$;>266q66063696q6<==*@@@@&>>2qqq06q6qq6q6q6q6",
"...+@%;<260606666620q62:;;##X@@*<6q0qqq6q6q6qq222;%#+o##;<26q60636666966q<**X@X@$;>66qq6q6q66q6q6q6q",
"...+$*;>26606666666q6622;%ooX@**<3q0006q6q6qqqq22;%#+++%-;266066366696363<=*@X.$$;>60qq06q6qq6q66qq6",
"...+$*;>260606666606q65:;+%+@@**>3660q666606q622<;##++$$;<260606666660q33<=*$X.$$-<666q6q66666666666",
"...+&&*=36qq66666660q33<**@o@@@=>666q6666660q6663*=  .&&*<33qqq66666q69662-$..@X*>><6q69666666666666",
"...+@&=<336666666696q33<**@@.@*=>266606666666q663** .@@@*<<33q3366666q666;;-##XX$*<<66q6666666666666",
"...+@&=3<6q6q6666606q33>=*@+@@&*>26qq6666666q663>***@X@@*<36qqqq66666qq622;$#.X$&><36q66666666666666",
"...+@&=366q66q6666q63q3>=*@@++**>666606666666663>**@X.@&*>363q336666q6q622;;$.X$&==<66q6666666666666",
".  +@**<2600q6060669q933*%++o@@*>266966666660666>=&.@.&&*63q00q660q6699022;$$..$@*<3<q3q666666666666",
".  +&**3600q0q6qq69qq933<%#o@ **>26669666660606<>=&&X@..*>360qqq6066qq9622;;##..**<<77q3666666666666",
"..oo**=3200q00666qqqq663*%%o+@**>666966666660666>==...&&;26q0qq6q6qq9qq022;##.##**<37qqq666666666666",
"..+o%**<620q606666q99666*%@++o%*>660606666606q661=*.@..&;>2660626666699022;;$X..%%*<3q<q666666666666",
"...+#%*<<7q<22262262222;=*#o+##;><36q6669166q6631==&o+##;;222662663322q2<2;%..$#$;>26060666666666666",
"..+++%***<<<<<2;22222<2;%%++++#->66q666666696663>=@@+oo#%-;:22226*33<222;;*@##.$&;>26606666666666666",
"+ +++#+%**<*-;--;;;;;;;;%#o++#%*><66q6666666q663>>&&++++$%;;;;;;******;;*+%@...#$;>26660666666666666",
"@ @o###%%%**;$%;$-#%%%$$##o+o#;*>66q6q6666606q63>&&@++++#$%%$;#;****%;;@%%+%#..#;;>66q06666666666666",
" +@ @ ++%@@@@@#.$$#.$##$....+#$;>33666666666q666>>*@@@ ++######.@@.@@@@@@#....$$$;;26q60666666666666",
" @ @@+++oo@+o+#.#.$..#..#...+#;;>369006666696q661=*@@@   ++...#.@@@.o@++o+.....$;;2266q6666666666666",
"@ @  +@+@o@ o+o ......#...o +$$;>36q60669666q663>==@@+o  ....... @.@@+ ++oo ..$$;;;26q60666666666666",
" @ @@  @@@@@+###$$$$#.##..oo+#;;>6666091616966633=*&@+o +###$$$#@@@@@@@@#+ #...$$;>26606666666666666",
"o+++@@@&$*@*&&@&$$$-&$-$#.X@X@**>2666q666666q666:;$$###o$$$&$&&&**@*@**$$$#++++@;;>26q60666666666666",
"o++o.@******--&&;;;;;&$;X$@X@X*=>266066666666q66<;;#.. #$&&&-&&*****;*;;;$##++o@$;;266q6666666666666",
"ooo@@****3>>>>>>2;;2>>;--$$@@@**>666606666660666<;;#..+#$;>>>>>><<<><<>>;;%#+o@@%;226060666666666666",
" o+++**=<33336362222626>&&XX++**<666q66666666666<;$#.###;;>66666<=3362662:%%++ @$;;26606666666666666",
" ..+@&*<36q66666666q606>%%#++@@*>2666q666666066><*%@+++$;>266q6073q36q662<;%@ X@%;222260666666666666",
"  .+@&><3q6q009q660qq66>:%#+o@**>266966666606066<*%@++$#;>6600q6qqq3qqqq22;%&X@@$;:2qqq6666666666666",
"...+&&><6qqq906qq6qqq066=%++++%%>660696666660666<=*@++@*;>660q9qqqqq6qq22:;;&XX$%;;22q6q666666666666",
"...+@*=>36qqq6q66q6q0062:%%+++%*>666966666606066<**+.+$$;>660096q3q3q6qqq2;%X@XX$;:266q6666666666666",
"...++%%<366q6q6666q6666<=%#ooo#;><3q66666666q663<>*@.*.*>*36q66q33q33q3q6>**...$$;>26060666666666666",
"...+#%;<36q6q666666qq6<>:%#+###-<<66q66666696663<**....**>666qq63q33qqq3<<<*@.$.*;>26606666666666666",
"...+%**<666q666666q6666<*%#++#%;<3666q666666q663>=*.$.@**<26q66633qq33q36<**@.$$$;>26660666666666666",
"...+@**<>6q666666666q62<;%#+++%%<66qq66666666q63<**+...*;<266q66q333qqq32<;@@..$$;>26q06666666666666",
".. +@%*<>69q0666666q666<;-#oo##-><3606366669q6663=*@@.@@&>66606666666q662<;*++o%%-;<6q60666666666666",
".  +%%=*66q666666606q662;##+++%%<<3q006066666q66>**@.@$&->>606066663q6q62:;*#oo+$;<266q6666666666666",
"..o+@==3166066666660q222;##+++%%>36066639169q663>=&X@X@$&>666q0666963q6622;#++++*;:26060666666666666",
"..o@@*=<660066666660222;-;#+++$->360606366696666>=&@X.@$;>66q666663396q62:;%#+++%*<26606666666666666",
"...+@*=633q6q6666666q66>**..@@$;>266q66666606q66<;&..X$$&>666q66666666q963=*@*..$-&33066666666666666",
"...+@&==<66q66666660666<<*$..@$;;26q666666660666>;&..-X$->>6q666666699633*=*...*$-3360q6666666666666",
"...+@&=366q666666666q66<;*$.$$&*<26qq66666666666>;&$.$X&&>666q66666696q63**=$$.@&&&62q66666666666666",
"...+&*==<66q6666666q666>>*$...@&>266666666666666>;&$XX$&&>36q066666666q633==@..@&&6266q6666666666666"
};
