/* XPM */
static char *_7ad650ae1124822e5db05fcb4a9958aTSBk3Bey5lsNJRXt[] = {
/* columns rows colors chars-per-pixel */
"100 100 55 1 ",
"  c #9B5C4F",
". c #9D5E51",
"X c #9F6053",
"o c #A26255",
"O c #A66559",
"+ c #A8675A",
"@ c #A7695C",
"# c #AC6A5E",
"$ c #AD6D61",
"% c #B06D60",
"& c #B16D60",
"* c #B26E61",
"= c #B36F63",
"- c #B46F62",
"; c #AE7063",
": c #AE7064",
"> c #AF7165",
", c #B37063",
"< c #B47063",
"1 c #B07266",
"2 c #B17367",
"3 c #B67164",
"4 c #B67265",
"5 c #B57467",
"6 c #B97366",
"7 c #B87367",
"8 c #B97467",
"9 c #BA7467",
"0 c #B27468",
"q c #B4766A",
"w c #B5766A",
"e c #B6766A",
"r c #B6776B",
"t c #BA7468",
"y c #BB7568",
"u c #BB7668",
"i c #BD7769",
"p c #B7786C",
"a c #BA786B",
"s c #BD786B",
"d c #BA786C",
"f c #B87A6E",
"g c #BA7B6F",
"h c #BD786C",
"j c #BD796D",
"k c #BD7C6F",
"l c #BB7C70",
"z c #BC7D71",
"x c #BF7D71",
"c c #BF7F73",
"v c #C07C70",
"b c #C07D70",
"n c #C07E72",
"m c #C07F73",
"M c #C17F73",
/* pixels */
". .Xo##,48uuutt488888888888888888888888888yi8i87-#+oX oO#&<8y88i888888888888888888888888888888888888",
" ..Xo+#<48uuuutt8888888888888888888888888888i787&#+oo XO#&78yi88888888888888888888888888888888888888",
". ..o+#,48uutuu4888888888888888888888888788y8y77<#OooXoO#&87uiyi888888888888888888888888888888888888",
" ..Xo+#*48uuuu7u88888888888888888888888888yyyyy8-#+oo oO#&7788iy888888888888888888888888888888888888",
".  XX@#,77tu7t7788888888888888888888888888syyyy7*#Ooo oo#&77u888888888888888888888888888888888888888",
". .Xo@#*=7utut4u88888888888888888888888888778yy<<#Ooo.oO#&788ii8888888888888888888888888888888888888",
". .XO+#*t4uuutu78888888888888888888888888888s877<#+oo.o+#&-7yy88888888888888888888888888888888888888",
"   Xo@#*=77tuu4t888888888888888888888888888yyyyr-#+O. oo#&778yy8888888888888888888888888888888888888",
"...XoO#*77uuut4t77888888u44t888888888888888ui7i4<#+oX.oO+&<88yi8778888788888888888888888888888888888",
" ..Xo##*-7uuuu4t77888888ttu7888788888888887u7iy7-#+o.XXO#-58yiu8778888778888888888887788888877888888",
". .XO+#48iiiuuuu7i7788884u4u8877888877877tuuttu7*$+oX.oO#<5ys8u8u77t8887885888887488777t7788777t8877",
"  .Xo#*18sjjdu7u77i7i7i7tuuu8iuu88i8uuu8utuuitu7-#+o.XX@&<iajjsiuu7u88iuyyui8iyyii8iu8i78i8iu8i7yyyi",
"   .X$$rdxjvjhuui8iutuutututi7iui8yyyy8iuththiuu4$+O.Xo@#raknjjjutuutu8iy8y88i8yuu8uuu7ii8ti7i7iys8y",
"  .XO#>pjnnnxhuu7i8uutuuuuuu8iii7iyyiyi8uuutthu7-#+X.XO@1pfxxnvjiutiuuu88i8i8syyuti8uti88iuui7i7y8y8",
"  .XO$2pxxmnxjhtu7tutututuuti888iyyyyy8iutuuihut<#OoXXO@1rxcnnjjutiutu8iiy8syyy8ti8iti7iuuuu9i8iyy8s",
" ..XO$1plxnxjdut774t7tu7tttt888877888888ttutuutt&#OoXXX#>rxnnnjst774t48888488888i777ttt77777i8t78788",
"   XX$$plllldu744-7-7444444444447<<7<77744477744<#Oo..O+#ppzzgf8r44*4477<<7<5<8<7<3777<4447<44444444",
"   XO@$>2fprr1>***%*&&**-<**,*,,&-&&*&&****<****++oo..X+$12rrq82***&&*&&&-*-<<,****&&&*-***-******&<",
"   .X$$$$$1$$$###+#####################+#######++oo. .ooO$$;1;$$####++#+###########+##+###+########+",
"    XXX.@$###OOOOOOOOO+OO++O+++++oOO+oOO+oOO++OOoo.....oOO@$#@#@OOOOOOOOOoO+++++++OOOOOOOOOOOOOOOOOO",
"  ..XXXXooOooooooooXXoooOooOOooOooooooXXooooooooo.. . ..XooooOXoXXoXXXXXooooOoooooooooooXXoXoooooXoX",
"....XXXXX.XX........ X XXXXX XXXo.o ..XX.X..X...o........XXXo.XX.XXXXXXX...Xo.XXoo. X....X.X.....XX.",
".XXXXXXX.X...oXoXXXXX.XX.... X X  .o.X.....XX..oo.XoXo.oXX......XXX.XX.XX .. ..X Xo .XXXXXXXo...XXXX",
"OOOO@XXXoXoooooooooOoOoXX...   XoooOOooOoooOooooooOoOoOoooooooooXOXOOOo+OOoX.   o oooOoooooooooooooo",
"@O@#O++++OOO+O++OOO+++OoOo   XXooo++++++@O+++O++++#+++++#O+O+OOO++++##$$$@@XX  .ooOOOO+++++++O#OO+++",
"$$*#*$*@###*####&&#&&##+oOo. XoO###&&###########&###*&*$#$#########*$>12>>@@Xo. XOO##&&&$####$##&+#&",
"=4-*>*=*----*-*---*4<<*#+Oo.XXO+#*<<<<<<***-<<*<,*1-*4**-*-*----**14rafrp>;@oX ooO#&-<<-**,,<-*--<&<",
"44t44744=74474747777774-#Oo. XO#&<5888887478748448844478474u-7-4747ufjnxfp,@OX. OO&3788888<874747<8<",
"uutututu7ii7i7i778yyyy7<#+o..oO#&8yy88s8s8yy8syy8i8yy8y88yyy7779u8ujjnnxzpq$OoXoo#-<8yysyi888s8yy88u",
"uuututut7iyy7i7iiiyvvy8<&+OX.oO#<8ysssyy8y8yy8y8s8i88syyyyyyiy9i8iujknmncp;$o XoO#<7yyysyyiuy8yyyyi7",
"uutututuiyyyi7i78ysyysi<&+OX.oO&*8yssysyi8ys8y8y8y8yy8y8yyyyyii7i8isjnxngr;$oo oO&-7ysssyys88ys8yi8i",
"utututut9ti77i7i8yysyy7-#+o..oo#*4yyyyyy8y88yys8y8s8yy8s8yyy777i8i88snkkaq,@Ooooo#<8yyysyy8yyy8iy8i7",
"8y8y5i887i7ii8i8v9v6v39*#+oX.oO#*<88i8i8y8yy8yi7yyyyi66666i66i668i7yysjfy7$@O..oO#-77syyy88888887i7i",
"878878887778748866666v7*#+oX.oo#&8iyuu758877y7887777996i86888888887iyy8i8<$+oX.XO#&87yyyy84y88887777",
"878878887888778866v6367*#+oXXoO#&48y8iy88888888888y79966i58888888877yyiu4-#+oX.XO&*488i8y88888887i77",
"7i8888888888888866666v9*#+oX.oO$<5yyiyyy888887888y769666888888888887yy887-#OoXXoO+&<8yyyyy588888777i",
"8s78yyyiyi88yiu89666793-*+oo.X@$28jjssu87yy77iy88y69v39i8uiy88i8yyyii77i4-#+oo.oO#&7yyysyyiu88i8766v",
"y8yyyyyy88i8888u6v6vv99-@+o.XO@$8axjxjsai7y7888y8y93-v93ui8yi888yyy8iiii7-#+o..oO#*7yyjyyy8iyi88v363",
"y8i8yyyy8i8iiii8969vv74<*+o.XX#1rjnnnjjyyii7iy7iyy9v9396uuyyy8ii7yyv8yiy7<#+oXXoO#&88syvyysyyyi86-v3",
"yi8iyyy8i8i88i8i9v96yv7-#Oo.XO@>agnnnnjs7i7i8yiiv3v36v6vi8yyy8i8iyiyyyss8<&+oX.o+#<8ivyyyiyyyy8y6v3v",
"888888886666y6889vi6i63**Oo..O@>rgxcxxfy777788788888y7878888878897i7i7784-#+oo.oO#<38yyyi88838886669",
"3873<85<336*<6*6--69964*+Oo..o@>rpzxjuy744<<<77<5<8<3<778<<,8444-7-t7777-*#Oo...o#*<<783<88<88<73663",
"*<*<<*<&*6***&**-&--**%#OoX..Oo#>rrqrr1<*&**&&-&&<<<**&-&,&&&&**%%------*#+OX..oo+##&<<<&&&,&&&&&&*&",
"##########+############+OoXX.XO@$>;>>*$@#######+############+######+#####+OoX...ooO####&############",
"++++++++OOOoOoOOOOO++OOoXX  ..XOO@$$@@@@o+OOOOOOOO+++++OOOOOoOOOOOOO+o+OoOo..  .oooOOOOoOOoOOOOOOOOo",
"OoOooooooXooooooXOXXooXXX.. ...XXoXOXXoXooXXoooooooooooOoo.oooXXooXooooooX.....  ..ooooooooooooo.ooo",
"..XoXooX XXXX X XXXX XXX.. ...XXXXXXXXXX..XX.... ooo.oXXX.X.XXX....XX.X.X...... ... ..ooX oX  X ...o",
".. X  X Xo XXoXXX XXXXXXXXoXo.. X..XXXX.o.XX.Xo..o  ....X.XXXXXXXXXXXX.XXX.o.oo.o.ooo X  oo oXoX.o..",
"     XooooOoooooooooo.o+oOOOOOoOooOX.ooooo+oOOOoo.  . XXXXXXXXX$ooooooooooOoOOOOOoOooooooooXoooooooo",
"  ..XoooOO+++++O++O++++++++++O++OOOO++O+O+++o+o+oO.o  .XX#$$>>@$+++OO++++++++#++++O+O+O+++O#OOO#O+++",
".  .oo++##&#####$##$#####$#%***########$####*%##OOooXXXO;;>>2;>;$##########&$#*$#$#&##$##########**+",
" ...oO+#&&<5<3*<*-**=---==*-1-**-------*--=----*&OooXXX@$>qpfrr14--*---*--***4**-<&--<*<&<&,,<<***3*",
".  XX@#,4888888444t44474t747474747777774t44ti77-&#Oo..o+;rfxnxaai4447774t44747477<8<78<388<848<49*63",
" . Xo@#<7yyyyyyyutututuuuu7i8i7i79i98iiruuuuyyi7<#+o..o#;pkcxxkfiyi7777uuutuuutuyyys8ys88y8y8iiu3v66",
" . XO+#<7iyvsii8tuituuuuuttti7i79i99i9ittuuux777<#Ooo O#>rncnnkjyy9i7iuuuutttutuyyi8yyyys8s8yyuuv366",
"  .oO@#<78yj88uiii7utttuutit7i7i999i7i7tituuiii7<#+o oo#;ravnvvsyy97i9u8utuuututy8i8yyyy8y8y8i8u3v6v",
" . Xo+#<77vy3v33uuttutiuuuu6i66vi7y79v33iyy8i8i7-#+o.Xo+;5fsnjj8uuuutu7i8i8iuu7ui87i8uuui9iuuu4u-vv6",
". ..o+#&<7y8v396uuut77884u6i6669973v993v878i8it4-#+o.XoO@48ijjjyu8u777i8777877tt88i88777996666i66333",
" ..oo##-78yiv66988887888886666667777793977tui9i4-#OoX.oO#1888iyi887778888888777uu888887866v6466u6v6v",
". .oo+#<<8s83y998888788888u66666i7799799777t7i7y-#+oXXXO#-48i8i888877788888888t77788888869-66uu46-66",
" ..XO@#1riy89yi9t7788848888899666-6-733vutuuii8i7*+oX.oO#*778ui8tt77t7tt8788tt774ttt8788666-66636666",
"   Xo@#58jsk9y9i4u88i8iu8iuu99996v6vv336uuudjjdf-*#oXXoO+--7u8uutuuuuutui88ituuuuutui8yii9v6v99vv-v6",
"  .XO#,ransvssi9uu8888iuyyu89v9iv99963v3uussjxjur>#OX.XO#-7yhuuutttutuuttui8ututut8u7iy89iv96699v636",
"   XO#1paxccbuii8iui8isyyyy89999i39-vv-vuusjnnnxr$$oXXXO#-7itthuduuuuttuuuuutuuuuui8iu8i9999999939-v",
"   XO$>pgxmmxjyyyi7iyyiyyyi8i8i8i8iy8sv3v9vvxncgpq$XXXX@#<8yyyyyyyi8i8i88s8i8iyyi8i8yvy69vv39v3viuui",
"  .XO#1pzxmxjjy7887788878788888888876777339vxccxp2$OXXXO#*<7vyyy88888888888888888888383y636y66337877",
"  .XO$;rzgzffy447<<78*783<y<35<87378<<3<449yzcgfp;$OXXXO+&*<387<833644<4448<<<85<58<387<336333367*8<",
"   XX@$;1rpqr11-&&&&&&*&**<&*<&&&&&&*&****4<>qfq>$@XX XoO#*&*3*<*********&&,<&<&<&&,&&&&**&&&&&&&-*-",
"   XX@$$$;1>*#*###+################++##@###$2,>;#@OXX .XOO+######@#################O#++####+####+&++",
"   XXX@X+&$+#OOOOoO+OOO+O+OO++++OoOooOoOOO@@#@##@OXX....ooOO+O+OOOOOo++o+o++++++++OOOOOOO+oOo+OOO++O",
"  . .XXXXOoOoooXooooXoooOoOooOOoooooooXXooooOOXXXXX.  ..XoooooooooXoooooooooooooO+oXXXXoooooooooXoXX",
".  ..XXXXXXX...Xo . ....XoXo oo ...X X.Xo XXXXXXXX...... X o...   Xo  XX.XXoooXX   oXX o. .o. o XXX.",
"XXXXXXXX.... XXXXXo.XXXX    X XXXXXXXXXXX..o..o XXXXXXXXX.XX.o XXoXX oo   o X XXXXXXXXXXXXo.XXXXo.XX",
"X@OOOOoooooooooooooOooooO X  X oX@@O@XOoooo.ooooXXO@OOOOOoooooOooooooOOoooXX.   XXXX@XOOOooooooooooo",
"+O@@O+++++OO+++O++++++OooX  .XoO@@###;@@+OOOOOO+++@@+#O#+O@O+++O++O+++++OOoX    X$@@$$##++++OOOO++O+",
"**$$$*############$#*##+OoX .X@+;>>2>>;##############*##&&###########&&&#+Ooo XoX@;;;p;,&####&####$#",
"<*<1--*-***3*3*3-<<<4**##oXX.X@;;pppy93------*--,<*,><<7<--&<&<**<**<<*<&&#oo Xo$>>qafpe-&--&&3**<*-",
"47847444773333777788884*#OXXXX@;pagcjyv37--777-7<88877<5<777785<66638y78,&#Oo oo@;qfbbgkvv-966368474",
"8s888uiu777669yyuuuuuu8<#OoXXX$;pknnvkv-7-n-77uti8i88yyy88y88yy8yyy3yyyy8<#Oo oo$>qgbbbv96--3366y88y",
"i88ii88uv79v99yyuuuisu8<#OXXXO@>pnnnvvv7vv-vtutu8i888yi8s88iyyyi8yyvysvy5<#+oX O@;fzvbb9vvv-vv6vi8y8",
"i7i77i7iutuu8i8yuhuhiuu=#+oo.oO*raxnvjjs8uu8uuut8y8y8i8ivy3vi8i8yyyyyyyyt<#+o.XX@>2zxnnjjuutututi8ys",
"7i7ii7i7uuu7u8iiuutuhtt=#+o..O#$rajxjjs8iu8iuutus8iyy8y8396y8y8yyyyyyvyy4**+oXXO@$>ajjjhituttutuyyy8",
"y788778i778i77y8utihuut-#+O.XXO$1ysjjsyi788888tu777y888y393yy8yyyy8yyyy7t*#Oo.XX+#>udhjuiuut87tt8888",
"8777i788i78887487uuutt4-#+o..oO#*4yy8yyy8i488774y777i788y6yy7788778yyyi87*$OoXXoO#&ruuuuuu4u87778888",
"88888888777884yyttuttu41#+oXXoO#-488888888t4ut7t88888888688888888888uuu84*#+XXXXO#*4i8iui87788888888",
"88887788778858877uitutt*#+oX.oO#*<8iy7i888u4u4t78888788888887788888yusuft,$+OXXXO#*48suuy87788888488",
"i7i8i7i8i8i8yiyyuuuth7y**OXXXXO#*4yyyyyyuuututuu63yy8i8i88yyy86y8iyyssjju4*+XXXXO#18asuuyyu7778i8yyy",
"7i7i7i7i88i8yyyytuudtit-#+OX..O#-8yyyyy8uututu7u6vy8yy88yii88yy8iyyyjjxjfr;#OXXX#$5aannssyuuutuus8yy",
"iii8i8yy8i8uuuyyiiyyv77-*OO..o+#-78yssi8yyyyyyi8iii8i8i8i88i8iv38iihxvnnzq>#oXXOO;rannvkjyui77i8yyyy",
"i78i8iyyi8i8ityitiiyii7-#+o..o+#*88ssyiiyyyyii8ii6yy8i8i8ss8i8y788dijnnnxf>$OXXX#>rxnnnkjsi88i7iy8yy",
"77888888888877777i7i7i4-*+o.X.O#*4siyi88yi8885888888888888887777uuufjxnnff1@OXXO@>pznnnkfyu47777787r",
"<7<7<7<7444444444777774-@+ooXoO+&<<8887<5<<83<55<3<88<7<8<5<44<7<44uddlxpr;$XX.X@>2pxkjfy7447-774444",
"<<<<<<<*-,,,--1**--=---*+OoXXXO+#&<<<<<3&<&&<<,,<<<<&<<&<<;<;>>;*-*1rrrpf>$$XXXXO$>qfar54<&&&&&-*4*4",
"#########*#####*###*#-++OoX.XXXO+###,####$#$############@;##$;@@###$*111>$$.XXXXO@$;111,$&#&######@#",
"+++++++++++++++++#++++OOOoXXXXoOo++#++O+O#+++++++++++#++@@@$X$@@++##@$$$$@@@XXXXO@@@$@##++O+OO++@O@@",
"oooOooooooooooooooOooOoooXX...XXooOoOooooooOoOooooooooooXOXXXXX@OoooOOOOOOXXXXXXXXX+OOO@oOooOOoOOXOX",
"oXXXXXXXXXXXXXXXXXXXXXXXXXX.X XXXXXX.XX.XXXXXXXX..X.XXXXXXXXXXXX.o.X.XXXXX....X..o.oo.o...o.XXXXXXXX",
"X.X  XX  X XX  XX    X.X...XXXX X X ........ XX . .....  .. ......... .......X.X...  .. .... ... XX ",
" .     .              .  XX  X XX      .    ..   ...           . .        .....X.         .   .  X  ",
". .  .  X X X X  X     .X XXXXX     . . . . . .  . ... .. X . . .  .       .X.X.. ..    .. . .      "
};
